<mxfile host="app.diagrams.net" modified="2020-07-25T00:09:13.640Z" agent="5.0 (Macintosh; Intel Mac OS X 10_15_5) AppleWebKit/537.36 (KHTML, like Gecko) Chrome/84.0.4147.89 Safari/537.36" etag="ItKd0AeyMDoJ585STGr-" version="13.4.9" type="github">
  <diagram id="R2lEEEUBdFMjLlhIrx00" name="Page-1">
    <mxGraphModel dx="946" dy="614" grid="1" gridSize="10" guides="1" tooltips="1" connect="1" arrows="1" fold="1" page="1" pageScale="1" pageWidth="850" pageHeight="1100" math="0" shadow="0" extFonts="Permanent Marker^https://fonts.googleapis.com/css?family=Permanent+Marker">
      <root>
        <mxCell id="0" />
        <mxCell id="1" parent="0" />
        <mxCell id="WOKz1QPU6Jla9YFI9S8J-139" value="" style="edgeStyle=entityRelationEdgeStyle;fontSize=12;html=1;endArrow=ERoneToMany;entryX=0;entryY=0.5;entryDx=0;entryDy=0;exitX=1;exitY=0.5;exitDx=0;exitDy=0;" edge="1" parent="1" source="WOKz1QPU6Jla9YFI9S8J-94" target="WOKz1QPU6Jla9YFI9S8J-87">
          <mxGeometry width="100" height="100" relative="1" as="geometry">
            <mxPoint x="340" y="390" as="sourcePoint" />
            <mxPoint x="440" y="290" as="targetPoint" />
          </mxGeometry>
        </mxCell>
        <mxCell id="WOKz1QPU6Jla9YFI9S8J-140" value="" style="edgeStyle=orthogonalEdgeStyle;fontSize=12;html=1;endArrow=ERoneToMany;entryX=0;entryY=0.5;entryDx=0;entryDy=0;exitX=1;exitY=0.5;exitDx=0;exitDy=0;" edge="1" parent="1" source="WOKz1QPU6Jla9YFI9S8J-68" target="WOKz1QPU6Jla9YFI9S8J-110">
          <mxGeometry width="100" height="100" relative="1" as="geometry">
            <mxPoint x="230" y="80" as="sourcePoint" />
            <mxPoint x="450" y="-60" as="targetPoint" />
          </mxGeometry>
        </mxCell>
        <mxCell id="WOKz1QPU6Jla9YFI9S8J-67" value="users" style="shape=table;startSize=30;container=1;collapsible=1;childLayout=tableLayout;fixedRows=1;rowLines=0;fontStyle=1;align=center;resizeLast=1;fillColor=#b0e3e6;strokeColor=#0e8088;" vertex="1" parent="1">
          <mxGeometry x="40" y="40" width="180" height="210" as="geometry" />
        </mxCell>
        <mxCell id="WOKz1QPU6Jla9YFI9S8J-68" value="" style="shape=partialRectangle;collapsible=0;dropTarget=0;pointerEvents=0;fillColor=none;top=0;left=0;bottom=1;right=0;points=[[0,0.5],[1,0.5]];portConstraint=eastwest;" vertex="1" parent="WOKz1QPU6Jla9YFI9S8J-67">
          <mxGeometry y="30" width="180" height="30" as="geometry" />
        </mxCell>
        <mxCell id="WOKz1QPU6Jla9YFI9S8J-69" value="PK" style="shape=partialRectangle;connectable=0;fillColor=none;top=0;left=0;bottom=0;right=0;fontStyle=1;overflow=hidden;" vertex="1" parent="WOKz1QPU6Jla9YFI9S8J-68">
          <mxGeometry width="30" height="30" as="geometry" />
        </mxCell>
        <mxCell id="WOKz1QPU6Jla9YFI9S8J-70" value="id" style="shape=partialRectangle;connectable=0;fillColor=none;top=0;left=0;bottom=0;right=0;align=left;spacingLeft=6;fontStyle=5;overflow=hidden;" vertex="1" parent="WOKz1QPU6Jla9YFI9S8J-68">
          <mxGeometry x="30" width="150" height="30" as="geometry" />
        </mxCell>
        <mxCell id="WOKz1QPU6Jla9YFI9S8J-71" value="" style="shape=partialRectangle;collapsible=0;dropTarget=0;pointerEvents=0;fillColor=none;top=0;left=0;bottom=0;right=0;points=[[0,0.5],[1,0.5]];portConstraint=eastwest;" vertex="1" parent="WOKz1QPU6Jla9YFI9S8J-67">
          <mxGeometry y="60" width="180" height="30" as="geometry" />
        </mxCell>
        <mxCell id="WOKz1QPU6Jla9YFI9S8J-72" value="" style="shape=partialRectangle;connectable=0;fillColor=none;top=0;left=0;bottom=0;right=0;editable=1;overflow=hidden;" vertex="1" parent="WOKz1QPU6Jla9YFI9S8J-71">
          <mxGeometry width="30" height="30" as="geometry" />
        </mxCell>
        <mxCell id="WOKz1QPU6Jla9YFI9S8J-73" value="name" style="shape=partialRectangle;connectable=0;fillColor=none;top=0;left=0;bottom=0;right=0;align=left;spacingLeft=6;overflow=hidden;" vertex="1" parent="WOKz1QPU6Jla9YFI9S8J-71">
          <mxGeometry x="30" width="150" height="30" as="geometry" />
        </mxCell>
        <mxCell id="WOKz1QPU6Jla9YFI9S8J-74" value="" style="shape=partialRectangle;collapsible=0;dropTarget=0;pointerEvents=0;fillColor=none;top=0;left=0;bottom=0;right=0;points=[[0,0.5],[1,0.5]];portConstraint=eastwest;" vertex="1" parent="WOKz1QPU6Jla9YFI9S8J-67">
          <mxGeometry y="90" width="180" height="30" as="geometry" />
        </mxCell>
        <mxCell id="WOKz1QPU6Jla9YFI9S8J-75" value="" style="shape=partialRectangle;connectable=0;fillColor=none;top=0;left=0;bottom=0;right=0;editable=1;overflow=hidden;" vertex="1" parent="WOKz1QPU6Jla9YFI9S8J-74">
          <mxGeometry width="30" height="30" as="geometry" />
        </mxCell>
        <mxCell id="WOKz1QPU6Jla9YFI9S8J-76" value="email" style="shape=partialRectangle;connectable=0;fillColor=none;top=0;left=0;bottom=0;right=0;align=left;spacingLeft=6;overflow=hidden;" vertex="1" parent="WOKz1QPU6Jla9YFI9S8J-74">
          <mxGeometry x="30" width="150" height="30" as="geometry" />
        </mxCell>
        <mxCell id="WOKz1QPU6Jla9YFI9S8J-77" value="" style="shape=partialRectangle;collapsible=0;dropTarget=0;pointerEvents=0;fillColor=none;top=0;left=0;bottom=0;right=0;points=[[0,0.5],[1,0.5]];portConstraint=eastwest;" vertex="1" parent="WOKz1QPU6Jla9YFI9S8J-67">
          <mxGeometry y="120" width="180" height="30" as="geometry" />
        </mxCell>
        <mxCell id="WOKz1QPU6Jla9YFI9S8J-78" value="" style="shape=partialRectangle;connectable=0;fillColor=none;top=0;left=0;bottom=0;right=0;editable=1;overflow=hidden;" vertex="1" parent="WOKz1QPU6Jla9YFI9S8J-77">
          <mxGeometry width="30" height="30" as="geometry" />
        </mxCell>
        <mxCell id="WOKz1QPU6Jla9YFI9S8J-79" value="password" style="shape=partialRectangle;connectable=0;fillColor=none;top=0;left=0;bottom=0;right=0;align=left;spacingLeft=6;overflow=hidden;" vertex="1" parent="WOKz1QPU6Jla9YFI9S8J-77">
          <mxGeometry x="30" width="150" height="30" as="geometry" />
        </mxCell>
        <mxCell id="WOKz1QPU6Jla9YFI9S8J-119" value="" style="shape=partialRectangle;collapsible=0;dropTarget=0;pointerEvents=0;fillColor=none;top=0;left=0;bottom=0;right=0;points=[[0,0.5],[1,0.5]];portConstraint=eastwest;" vertex="1" parent="WOKz1QPU6Jla9YFI9S8J-67">
          <mxGeometry y="150" width="180" height="30" as="geometry" />
        </mxCell>
        <mxCell id="WOKz1QPU6Jla9YFI9S8J-120" value="" style="shape=partialRectangle;connectable=0;fillColor=none;top=0;left=0;bottom=0;right=0;editable=1;overflow=hidden;" vertex="1" parent="WOKz1QPU6Jla9YFI9S8J-119">
          <mxGeometry width="30" height="30" as="geometry" />
        </mxCell>
        <mxCell id="WOKz1QPU6Jla9YFI9S8J-121" value="phone" style="shape=partialRectangle;connectable=0;fillColor=none;top=0;left=0;bottom=0;right=0;align=left;spacingLeft=6;overflow=hidden;" vertex="1" parent="WOKz1QPU6Jla9YFI9S8J-119">
          <mxGeometry x="30" width="150" height="30" as="geometry" />
        </mxCell>
        <mxCell id="WOKz1QPU6Jla9YFI9S8J-122" value="" style="shape=partialRectangle;collapsible=0;dropTarget=0;pointerEvents=0;fillColor=none;top=0;left=0;bottom=0;right=0;points=[[0,0.5],[1,0.5]];portConstraint=eastwest;" vertex="1" parent="WOKz1QPU6Jla9YFI9S8J-67">
          <mxGeometry y="180" width="180" height="30" as="geometry" />
        </mxCell>
        <mxCell id="WOKz1QPU6Jla9YFI9S8J-123" value="" style="shape=partialRectangle;connectable=0;fillColor=none;top=0;left=0;bottom=0;right=0;editable=1;overflow=hidden;" vertex="1" parent="WOKz1QPU6Jla9YFI9S8J-122">
          <mxGeometry width="30" height="30" as="geometry" />
        </mxCell>
        <mxCell id="WOKz1QPU6Jla9YFI9S8J-124" value="role" style="shape=partialRectangle;connectable=0;fillColor=none;top=0;left=0;bottom=0;right=0;align=left;spacingLeft=6;overflow=hidden;" vertex="1" parent="WOKz1QPU6Jla9YFI9S8J-122">
          <mxGeometry x="30" width="150" height="30" as="geometry" />
        </mxCell>
        <mxCell id="WOKz1QPU6Jla9YFI9S8J-93" value="menu_items" style="shape=table;startSize=30;container=1;collapsible=1;childLayout=tableLayout;fixedRows=1;rowLines=0;fontStyle=1;align=center;resizeLast=1;fillColor=#b0e3e6;strokeColor=#0e8088;" vertex="1" parent="1">
          <mxGeometry x="40" y="280" width="180" height="220" as="geometry" />
        </mxCell>
        <mxCell id="WOKz1QPU6Jla9YFI9S8J-94" value="" style="shape=partialRectangle;collapsible=0;dropTarget=0;pointerEvents=0;fillColor=none;top=0;left=0;bottom=1;right=0;points=[[0,0.5],[1,0.5]];portConstraint=eastwest;" vertex="1" parent="WOKz1QPU6Jla9YFI9S8J-93">
          <mxGeometry y="30" width="180" height="30" as="geometry" />
        </mxCell>
        <mxCell id="WOKz1QPU6Jla9YFI9S8J-95" value="PK" style="shape=partialRectangle;connectable=0;fillColor=none;top=0;left=0;bottom=0;right=0;fontStyle=1;overflow=hidden;" vertex="1" parent="WOKz1QPU6Jla9YFI9S8J-94">
          <mxGeometry width="30" height="30" as="geometry" />
        </mxCell>
        <mxCell id="WOKz1QPU6Jla9YFI9S8J-96" value="id" style="shape=partialRectangle;connectable=0;fillColor=none;top=0;left=0;bottom=0;right=0;align=left;spacingLeft=6;fontStyle=5;overflow=hidden;" vertex="1" parent="WOKz1QPU6Jla9YFI9S8J-94">
          <mxGeometry x="30" width="150" height="30" as="geometry" />
        </mxCell>
        <mxCell id="WOKz1QPU6Jla9YFI9S8J-97" value="" style="shape=partialRectangle;collapsible=0;dropTarget=0;pointerEvents=0;fillColor=none;top=0;left=0;bottom=0;right=0;points=[[0,0.5],[1,0.5]];portConstraint=eastwest;" vertex="1" parent="WOKz1QPU6Jla9YFI9S8J-93">
          <mxGeometry y="60" width="180" height="30" as="geometry" />
        </mxCell>
        <mxCell id="WOKz1QPU6Jla9YFI9S8J-98" value="" style="shape=partialRectangle;connectable=0;fillColor=none;top=0;left=0;bottom=0;right=0;editable=1;overflow=hidden;" vertex="1" parent="WOKz1QPU6Jla9YFI9S8J-97">
          <mxGeometry width="30" height="30" as="geometry" />
        </mxCell>
        <mxCell id="WOKz1QPU6Jla9YFI9S8J-99" value="name" style="shape=partialRectangle;connectable=0;fillColor=none;top=0;left=0;bottom=0;right=0;align=left;spacingLeft=6;overflow=hidden;" vertex="1" parent="WOKz1QPU6Jla9YFI9S8J-97">
          <mxGeometry x="30" width="150" height="30" as="geometry" />
        </mxCell>
        <mxCell id="WOKz1QPU6Jla9YFI9S8J-100" value="" style="shape=partialRectangle;collapsible=0;dropTarget=0;pointerEvents=0;fillColor=none;top=0;left=0;bottom=0;right=0;points=[[0,0.5],[1,0.5]];portConstraint=eastwest;" vertex="1" parent="WOKz1QPU6Jla9YFI9S8J-93">
          <mxGeometry y="90" width="180" height="30" as="geometry" />
        </mxCell>
        <mxCell id="WOKz1QPU6Jla9YFI9S8J-101" value="" style="shape=partialRectangle;connectable=0;fillColor=none;top=0;left=0;bottom=0;right=0;editable=1;overflow=hidden;" vertex="1" parent="WOKz1QPU6Jla9YFI9S8J-100">
          <mxGeometry width="30" height="30" as="geometry" />
        </mxCell>
        <mxCell id="WOKz1QPU6Jla9YFI9S8J-102" value="description" style="shape=partialRectangle;connectable=0;fillColor=none;top=0;left=0;bottom=0;right=0;align=left;spacingLeft=6;overflow=hidden;" vertex="1" parent="WOKz1QPU6Jla9YFI9S8J-100">
          <mxGeometry x="30" width="150" height="30" as="geometry" />
        </mxCell>
        <mxCell id="WOKz1QPU6Jla9YFI9S8J-103" value="" style="shape=partialRectangle;collapsible=0;dropTarget=0;pointerEvents=0;fillColor=none;top=0;left=0;bottom=0;right=0;points=[[0,0.5],[1,0.5]];portConstraint=eastwest;" vertex="1" parent="WOKz1QPU6Jla9YFI9S8J-93">
          <mxGeometry y="120" width="180" height="30" as="geometry" />
        </mxCell>
        <mxCell id="WOKz1QPU6Jla9YFI9S8J-104" value="" style="shape=partialRectangle;connectable=0;fillColor=none;top=0;left=0;bottom=0;right=0;editable=1;overflow=hidden;" vertex="1" parent="WOKz1QPU6Jla9YFI9S8J-103">
          <mxGeometry width="30" height="30" as="geometry" />
        </mxCell>
        <mxCell id="WOKz1QPU6Jla9YFI9S8J-105" value="thumbnail_url" style="shape=partialRectangle;connectable=0;fillColor=none;top=0;left=0;bottom=0;right=0;align=left;spacingLeft=6;overflow=hidden;" vertex="1" parent="WOKz1QPU6Jla9YFI9S8J-103">
          <mxGeometry x="30" width="150" height="30" as="geometry" />
        </mxCell>
        <mxCell id="WOKz1QPU6Jla9YFI9S8J-125" value="" style="shape=partialRectangle;collapsible=0;dropTarget=0;pointerEvents=0;fillColor=none;top=0;left=0;bottom=0;right=0;points=[[0,0.5],[1,0.5]];portConstraint=eastwest;" vertex="1" parent="WOKz1QPU6Jla9YFI9S8J-93">
          <mxGeometry y="150" width="180" height="30" as="geometry" />
        </mxCell>
        <mxCell id="WOKz1QPU6Jla9YFI9S8J-126" value="" style="shape=partialRectangle;connectable=0;fillColor=none;top=0;left=0;bottom=0;right=0;editable=1;overflow=hidden;" vertex="1" parent="WOKz1QPU6Jla9YFI9S8J-125">
          <mxGeometry width="30" height="30" as="geometry" />
        </mxCell>
        <mxCell id="WOKz1QPU6Jla9YFI9S8J-127" value="price" style="shape=partialRectangle;connectable=0;fillColor=none;top=0;left=0;bottom=0;right=0;align=left;spacingLeft=6;overflow=hidden;" vertex="1" parent="WOKz1QPU6Jla9YFI9S8J-125">
          <mxGeometry x="30" width="150" height="30" as="geometry" />
        </mxCell>
        <mxCell id="WOKz1QPU6Jla9YFI9S8J-128" value="" style="shape=partialRectangle;collapsible=0;dropTarget=0;pointerEvents=0;fillColor=none;top=0;left=0;bottom=0;right=0;points=[[0,0.5],[1,0.5]];portConstraint=eastwest;" vertex="1" parent="WOKz1QPU6Jla9YFI9S8J-93">
          <mxGeometry y="180" width="180" height="30" as="geometry" />
        </mxCell>
        <mxCell id="WOKz1QPU6Jla9YFI9S8J-129" value="" style="shape=partialRectangle;connectable=0;fillColor=none;top=0;left=0;bottom=0;right=0;editable=1;overflow=hidden;" vertex="1" parent="WOKz1QPU6Jla9YFI9S8J-128">
          <mxGeometry width="30" height="30" as="geometry" />
        </mxCell>
        <mxCell id="WOKz1QPU6Jla9YFI9S8J-130" value="category" style="shape=partialRectangle;connectable=0;fillColor=none;top=0;left=0;bottom=0;right=0;align=left;spacingLeft=6;overflow=hidden;" vertex="1" parent="WOKz1QPU6Jla9YFI9S8J-128">
          <mxGeometry x="30" width="150" height="30" as="geometry" />
        </mxCell>
        <mxCell id="WOKz1QPU6Jla9YFI9S8J-144" value="" style="edgeStyle=orthogonalEdgeStyle;fontSize=12;html=1;endArrow=ERoneToMany;entryX=0;entryY=0.5;entryDx=0;entryDy=0;exitX=1;exitY=0.5;exitDx=0;exitDy=0;" edge="1" parent="1" source="WOKz1QPU6Jla9YFI9S8J-107" target="WOKz1QPU6Jla9YFI9S8J-84">
          <mxGeometry width="100" height="100" relative="1" as="geometry">
            <mxPoint x="500" y="80" as="sourcePoint" />
            <mxPoint x="600" y="-20" as="targetPoint" />
          </mxGeometry>
        </mxCell>
        <mxCell id="WOKz1QPU6Jla9YFI9S8J-106" value="orders" style="shape=table;startSize=30;container=1;collapsible=1;childLayout=tableLayout;fixedRows=1;rowLines=0;fontStyle=1;align=center;resizeLast=1;fillColor=#b0e3e6;strokeColor=#0e8088;" vertex="1" parent="1">
          <mxGeometry x="280" y="40" width="180" height="240" as="geometry" />
        </mxCell>
        <mxCell id="WOKz1QPU6Jla9YFI9S8J-107" value="" style="shape=partialRectangle;collapsible=0;dropTarget=0;pointerEvents=0;fillColor=none;top=0;left=0;bottom=1;right=0;points=[[0,0.5],[1,0.5]];portConstraint=eastwest;" vertex="1" parent="WOKz1QPU6Jla9YFI9S8J-106">
          <mxGeometry y="30" width="180" height="30" as="geometry" />
        </mxCell>
        <mxCell id="WOKz1QPU6Jla9YFI9S8J-108" value="PK" style="shape=partialRectangle;connectable=0;fillColor=none;top=0;left=0;bottom=0;right=0;fontStyle=1;overflow=hidden;" vertex="1" parent="WOKz1QPU6Jla9YFI9S8J-107">
          <mxGeometry width="30" height="30" as="geometry" />
        </mxCell>
        <mxCell id="WOKz1QPU6Jla9YFI9S8J-109" value="id" style="shape=partialRectangle;connectable=0;fillColor=none;top=0;left=0;bottom=0;right=0;align=left;spacingLeft=6;fontStyle=5;overflow=hidden;" vertex="1" parent="WOKz1QPU6Jla9YFI9S8J-107">
          <mxGeometry x="30" width="150" height="30" as="geometry" />
        </mxCell>
        <mxCell id="WOKz1QPU6Jla9YFI9S8J-110" value="" style="shape=partialRectangle;collapsible=0;dropTarget=0;pointerEvents=0;fillColor=none;top=0;left=0;bottom=0;right=0;points=[[0,0.5],[1,0.5]];portConstraint=eastwest;" vertex="1" parent="WOKz1QPU6Jla9YFI9S8J-106">
          <mxGeometry y="60" width="180" height="30" as="geometry" />
        </mxCell>
        <mxCell id="WOKz1QPU6Jla9YFI9S8J-111" value="FK" style="shape=partialRectangle;connectable=0;fillColor=none;top=0;left=0;bottom=0;right=0;editable=1;overflow=hidden;" vertex="1" parent="WOKz1QPU6Jla9YFI9S8J-110">
          <mxGeometry width="30" height="30" as="geometry" />
        </mxCell>
        <mxCell id="WOKz1QPU6Jla9YFI9S8J-112" value="user_id" style="shape=partialRectangle;connectable=0;fillColor=none;top=0;left=0;bottom=0;right=0;align=left;spacingLeft=6;overflow=hidden;" vertex="1" parent="WOKz1QPU6Jla9YFI9S8J-110">
          <mxGeometry x="30" width="150" height="30" as="geometry" />
        </mxCell>
        <mxCell id="WOKz1QPU6Jla9YFI9S8J-113" value="" style="shape=partialRectangle;collapsible=0;dropTarget=0;pointerEvents=0;fillColor=none;top=0;left=0;bottom=0;right=0;points=[[0,0.5],[1,0.5]];portConstraint=eastwest;" vertex="1" parent="WOKz1QPU6Jla9YFI9S8J-106">
          <mxGeometry y="90" width="180" height="30" as="geometry" />
        </mxCell>
        <mxCell id="WOKz1QPU6Jla9YFI9S8J-114" value="" style="shape=partialRectangle;connectable=0;fillColor=none;top=0;left=0;bottom=0;right=0;editable=1;overflow=hidden;" vertex="1" parent="WOKz1QPU6Jla9YFI9S8J-113">
          <mxGeometry width="30" height="30" as="geometry" />
        </mxCell>
        <mxCell id="WOKz1QPU6Jla9YFI9S8J-115" value="order_time" style="shape=partialRectangle;connectable=0;fillColor=none;top=0;left=0;bottom=0;right=0;align=left;spacingLeft=6;overflow=hidden;" vertex="1" parent="WOKz1QPU6Jla9YFI9S8J-113">
          <mxGeometry x="30" width="150" height="30" as="geometry" />
        </mxCell>
        <mxCell id="WOKz1QPU6Jla9YFI9S8J-131" value="" style="shape=partialRectangle;collapsible=0;dropTarget=0;pointerEvents=0;fillColor=none;top=0;left=0;bottom=0;right=0;points=[[0,0.5],[1,0.5]];portConstraint=eastwest;" vertex="1" parent="WOKz1QPU6Jla9YFI9S8J-106">
          <mxGeometry y="120" width="180" height="30" as="geometry" />
        </mxCell>
        <mxCell id="WOKz1QPU6Jla9YFI9S8J-132" value="" style="shape=partialRectangle;connectable=0;fillColor=none;top=0;left=0;bottom=0;right=0;editable=1;overflow=hidden;" vertex="1" parent="WOKz1QPU6Jla9YFI9S8J-131">
          <mxGeometry width="30" height="30" as="geometry" />
        </mxCell>
        <mxCell id="WOKz1QPU6Jla9YFI9S8J-133" value="wait_time" style="shape=partialRectangle;connectable=0;fillColor=none;top=0;left=0;bottom=0;right=0;align=left;spacingLeft=6;overflow=hidden;" vertex="1" parent="WOKz1QPU6Jla9YFI9S8J-131">
          <mxGeometry x="30" width="150" height="30" as="geometry" />
        </mxCell>
        <mxCell id="WOKz1QPU6Jla9YFI9S8J-134" value="" style="shape=partialRectangle;collapsible=0;dropTarget=0;pointerEvents=0;fillColor=none;top=0;left=0;bottom=0;right=0;points=[[0,0.5],[1,0.5]];portConstraint=eastwest;" vertex="1" parent="WOKz1QPU6Jla9YFI9S8J-106">
          <mxGeometry y="150" width="180" height="30" as="geometry" />
        </mxCell>
        <mxCell id="WOKz1QPU6Jla9YFI9S8J-135" value="" style="shape=partialRectangle;connectable=0;fillColor=none;top=0;left=0;bottom=0;right=0;editable=1;overflow=hidden;" vertex="1" parent="WOKz1QPU6Jla9YFI9S8J-134">
          <mxGeometry width="30" height="30" as="geometry" />
        </mxCell>
        <mxCell id="WOKz1QPU6Jla9YFI9S8J-136" value="order_status" style="shape=partialRectangle;connectable=0;fillColor=none;top=0;left=0;bottom=0;right=0;align=left;spacingLeft=6;overflow=hidden;" vertex="1" parent="WOKz1QPU6Jla9YFI9S8J-134">
          <mxGeometry x="30" width="150" height="30" as="geometry" />
        </mxCell>
        <mxCell id="WOKz1QPU6Jla9YFI9S8J-116" value="" style="shape=partialRectangle;collapsible=0;dropTarget=0;pointerEvents=0;fillColor=none;top=0;left=0;bottom=0;right=0;points=[[0,0.5],[1,0.5]];portConstraint=eastwest;" vertex="1" parent="WOKz1QPU6Jla9YFI9S8J-106">
          <mxGeometry y="180" width="180" height="30" as="geometry" />
        </mxCell>
        <mxCell id="WOKz1QPU6Jla9YFI9S8J-117" value="" style="shape=partialRectangle;connectable=0;fillColor=none;top=0;left=0;bottom=0;right=0;editable=1;overflow=hidden;" vertex="1" parent="WOKz1QPU6Jla9YFI9S8J-116">
          <mxGeometry width="30" height="30" as="geometry" />
        </mxCell>
        <mxCell id="WOKz1QPU6Jla9YFI9S8J-118" value="pickup_time" style="shape=partialRectangle;connectable=0;fillColor=none;top=0;left=0;bottom=0;right=0;align=left;spacingLeft=6;overflow=hidden;" vertex="1" parent="WOKz1QPU6Jla9YFI9S8J-116">
          <mxGeometry x="30" width="150" height="30" as="geometry" />
        </mxCell>
        <mxCell id="WOKz1QPU6Jla9YFI9S8J-145" value="" style="shape=partialRectangle;collapsible=0;dropTarget=0;pointerEvents=0;fillColor=none;top=0;left=0;bottom=0;right=0;points=[[0,0.5],[1,0.5]];portConstraint=eastwest;" vertex="1" parent="WOKz1QPU6Jla9YFI9S8J-106">
          <mxGeometry y="210" width="180" height="30" as="geometry" />
        </mxCell>
        <mxCell id="WOKz1QPU6Jla9YFI9S8J-146" value="" style="shape=partialRectangle;connectable=0;fillColor=none;top=0;left=0;bottom=0;right=0;editable=1;overflow=hidden;" vertex="1" parent="WOKz1QPU6Jla9YFI9S8J-145">
          <mxGeometry width="30" height="30" as="geometry" />
        </mxCell>
        <mxCell id="WOKz1QPU6Jla9YFI9S8J-147" value="customer_notes" style="shape=partialRectangle;connectable=0;fillColor=none;top=0;left=0;bottom=0;right=0;align=left;spacingLeft=6;overflow=hidden;" vertex="1" parent="WOKz1QPU6Jla9YFI9S8J-145">
          <mxGeometry x="30" width="150" height="30" as="geometry" />
        </mxCell>
        <mxCell id="WOKz1QPU6Jla9YFI9S8J-80" value="ordered_items" style="shape=table;startSize=30;container=1;collapsible=1;childLayout=tableLayout;fixedRows=1;rowLines=0;fontStyle=1;align=center;resizeLast=1;fillColor=#b0e3e6;strokeColor=#0e8088;" vertex="1" parent="1">
          <mxGeometry x="510" y="220" width="180" height="160" as="geometry" />
        </mxCell>
        <mxCell id="WOKz1QPU6Jla9YFI9S8J-81" value="" style="shape=partialRectangle;collapsible=0;dropTarget=0;pointerEvents=0;fillColor=none;top=0;left=0;bottom=1;right=0;points=[[0,0.5],[1,0.5]];portConstraint=eastwest;" vertex="1" parent="WOKz1QPU6Jla9YFI9S8J-80">
          <mxGeometry y="30" width="180" height="30" as="geometry" />
        </mxCell>
        <mxCell id="WOKz1QPU6Jla9YFI9S8J-82" value="PK" style="shape=partialRectangle;connectable=0;fillColor=none;top=0;left=0;bottom=0;right=0;fontStyle=1;overflow=hidden;" vertex="1" parent="WOKz1QPU6Jla9YFI9S8J-81">
          <mxGeometry width="30" height="30" as="geometry" />
        </mxCell>
        <mxCell id="WOKz1QPU6Jla9YFI9S8J-83" value="id" style="shape=partialRectangle;connectable=0;fillColor=none;top=0;left=0;bottom=0;right=0;align=left;spacingLeft=6;fontStyle=5;overflow=hidden;" vertex="1" parent="WOKz1QPU6Jla9YFI9S8J-81">
          <mxGeometry x="30" width="150" height="30" as="geometry" />
        </mxCell>
        <mxCell id="WOKz1QPU6Jla9YFI9S8J-84" value="" style="shape=partialRectangle;collapsible=0;dropTarget=0;pointerEvents=0;fillColor=none;top=0;left=0;bottom=0;right=0;points=[[0,0.5],[1,0.5]];portConstraint=eastwest;" vertex="1" parent="WOKz1QPU6Jla9YFI9S8J-80">
          <mxGeometry y="60" width="180" height="30" as="geometry" />
        </mxCell>
        <mxCell id="WOKz1QPU6Jla9YFI9S8J-85" value="FK" style="shape=partialRectangle;connectable=0;fillColor=none;top=0;left=0;bottom=0;right=0;editable=1;overflow=hidden;" vertex="1" parent="WOKz1QPU6Jla9YFI9S8J-84">
          <mxGeometry width="30" height="30" as="geometry" />
        </mxCell>
        <mxCell id="WOKz1QPU6Jla9YFI9S8J-86" value="order_id" style="shape=partialRectangle;connectable=0;fillColor=none;top=0;left=0;bottom=0;right=0;align=left;spacingLeft=6;overflow=hidden;" vertex="1" parent="WOKz1QPU6Jla9YFI9S8J-84">
          <mxGeometry x="30" width="150" height="30" as="geometry" />
        </mxCell>
        <mxCell id="WOKz1QPU6Jla9YFI9S8J-87" value="" style="shape=partialRectangle;collapsible=0;dropTarget=0;pointerEvents=0;fillColor=none;top=0;left=0;bottom=0;right=0;points=[[0,0.5],[1,0.5]];portConstraint=eastwest;" vertex="1" parent="WOKz1QPU6Jla9YFI9S8J-80">
          <mxGeometry y="90" width="180" height="30" as="geometry" />
        </mxCell>
        <mxCell id="WOKz1QPU6Jla9YFI9S8J-88" value="FK" style="shape=partialRectangle;connectable=0;fillColor=none;top=0;left=0;bottom=0;right=0;editable=1;overflow=hidden;" vertex="1" parent="WOKz1QPU6Jla9YFI9S8J-87">
          <mxGeometry width="30" height="30" as="geometry" />
        </mxCell>
        <mxCell id="WOKz1QPU6Jla9YFI9S8J-89" value="menu_item_id" style="shape=partialRectangle;connectable=0;fillColor=none;top=0;left=0;bottom=0;right=0;align=left;spacingLeft=6;overflow=hidden;" vertex="1" parent="WOKz1QPU6Jla9YFI9S8J-87">
          <mxGeometry x="30" width="150" height="30" as="geometry" />
        </mxCell>
        <mxCell id="WOKz1QPU6Jla9YFI9S8J-90" value="" style="shape=partialRectangle;collapsible=0;dropTarget=0;pointerEvents=0;fillColor=none;top=0;left=0;bottom=0;right=0;points=[[0,0.5],[1,0.5]];portConstraint=eastwest;" vertex="1" parent="WOKz1QPU6Jla9YFI9S8J-80">
          <mxGeometry y="120" width="180" height="30" as="geometry" />
        </mxCell>
        <mxCell id="WOKz1QPU6Jla9YFI9S8J-91" value="" style="shape=partialRectangle;connectable=0;fillColor=none;top=0;left=0;bottom=0;right=0;editable=1;overflow=hidden;" vertex="1" parent="WOKz1QPU6Jla9YFI9S8J-90">
          <mxGeometry width="30" height="30" as="geometry" />
        </mxCell>
        <mxCell id="WOKz1QPU6Jla9YFI9S8J-92" value="quantity" style="shape=partialRectangle;connectable=0;fillColor=none;top=0;left=0;bottom=0;right=0;align=left;spacingLeft=6;overflow=hidden;" vertex="1" parent="WOKz1QPU6Jla9YFI9S8J-90">
          <mxGeometry x="30" width="150" height="30" as="geometry" />
        </mxCell>
      </root>
    </mxGraphModel>
  </diagram>
</mxfile>
